<svg viewBox="0 0 100 100" xml:space="preserve" xmlns="http://www.w3.org/2000/svg"><path d="M40.294 85.885c1.106-2.086 2.237-4.548 2.896-6.831.608-2.111 2.055-8.001 2.34-10.115 2.143 4.371 7.407 4.889 11.848 4.643 6.618-.366 13.398-5.242 16.019-11.226 2.362-5.395 4.064-11.963 3.477-17.878-.453-4.562-2.69-10.157-6.039-13.439-2.548-2.498-5.896-4.468-8.956-5.955-3.818-1.855-9.06-2-13.133-1.656-2.486.21-4.827.575-7.215 1.403-2.116.734-3.997 2.048-6.027 3.066-1.906.956-3.552 1.896-4.913 3.369-1.456 1.576-2.901 3.477-4.209 5.159-1.553 1.998-2.204 4.436-3.132 6.884-.825 2.178-.988 4.984-.618 7.375.652 4.213 2.023 7.953 5.219 10.9 1.117 1.03 3.403 3.562 4.906 2.277 1.491-1.275 1.584-4.838.75-6.335-.9-1.617-2.54-2.891-2.753-4.823-.624-5.656 1.153-11.761 4.777-16.143 5.999-7.253 18.488-8.484 25.97-2.913a13.817 13.817 0 0 1 5.503 9.781c.371 3.963.592 8.756-1.003 12.482a34.933 34.933 0 0 1-4.077 7.051c-1.633 2.176-4.394 3.659-7.116 3.676-3.751.024-4.722-2.388-7.035-4.74.717-1.421 1.071-3.846 1.391-5.469.452-2.3 1.075-4.163 1.868-6.341 1.109-3.044 1.686-7.69-1.305-9.86-3.292-2.388-8.127.041-9.998 3.195-1.146 1.932-1.187 4.31-1.133 6.49.052 2.097.765 4.152.669 6.258-.093 2.042-.973 3.952-1.282 5.959-.373 2.42-.756 4.741-1.393 7.11-1.184 4.399-2.751 8.742-2.638 13.323.031 1.285.064 2.71-.224 3.964-1.489.074-3.688-1.793-4.981-2.57-2.197-1.32-3.482-2.698-5.212-4.532-1.89-2.003-3.978-3.593-5.781-5.752-1.549-1.855-2.804-4.02-3.906-6.113-5.168-9.804-4.717-22.094-1.182-32.453 1.909-5.593 6.486-10.235 10.31-14.623 5.896-6.771 17.617-10.462 26.528-10.306 5.858.103 11.107 1.33 16.605 3.256 8.58 3.006 16.897 10.877 19.991 19.486 1.471 4.093 3.276 8.167 3.779 12.527.478 4.136-.403 8.273-1.001 12.35-1.245 8.487-6.29 16.587-12.779 22.062a50.961 50.961 0 0 1-6.138 4.453c-7.396 4.537-15.667 5.645-24.151 5.502-1.635-.027-3.268-.003-4.862-.415-2.115-.545-1.695-1.598-.852-3.144.066-.121.133-.245.198-.369z" fill="#999999" class="fill-c1404a"></path></svg>