<svg viewBox="0 0 78 78" xml:space="preserve" xmlns="http://www.w3.org/2000/svg" enable-background="new 0 0 78 78"><path d="M72 12.5H55.001l-6.11-6.979a3.003 3.003 0 0 0-2.257-1.023H31.366c-.864 0-1.687.373-2.257 1.023l-6.11 6.979H6a6 6 0 0 0-6 6v40.001a6 6 0 0 0 6 6h13.563c4.677 5.504 11.646 9 19.437 9s14.76-3.496 19.437-9H72a6 6 0 0 0 6-6V18.5a6 6 0 0 0-6-6zM39 67.501c-10.752 0-19.5-8.748-19.5-19.5s8.748-19.5 19.5-19.5 19.5 8.748 19.5 19.5-8.748 19.5-19.5 19.5zm33-10a1 1 0 0 1-1 1h-8.763a25.405 25.405 0 0 0 2.263-10.5c0-14.086-11.414-25.5-25.5-25.5s-25.5 11.414-25.5 25.5c0 3.745.813 7.297 2.263 10.5H7a1 1 0 0 1-1-1V19.5a1 1 0 0 1 1-1h18.721l1.793-2.048 5.213-5.954h12.547l5.213 5.954L52.28 18.5H71a1 1 0 0 1 1 1v38.001zm-33-25.5c-9.098 0-16.5 7.402-16.5 16.5a3 3 0 1 0 6 0c0-5.79 4.71-10.5 10.5-10.5a3 3 0 1 0 0-6zM9.941 28.502h6v-6h-6v6z" fill="#ffffff" class="fill-333f4f"></path></svg>