<?xml version="1.0" ?><!DOCTYPE svg  PUBLIC '-//W3C//DTD SVG 1.1//EN'  'http://www.w3.org/Graphics/SVG/1.1/DTD/svg11.dtd'><svg height="512px" style="enable-background:new 0 0 512 512;" version="1.1" viewBox="0 0 512 512" width="512px" xml:space="preserve" xmlns="http://www.w3.org/2000/svg" xmlns:xlink="http://www.w3.org/1999/xlink"><g id="_x33_66-vnv"><g><path d="M101.397,313.499c-24.51,0-33.351-21.849-33.351-21.849L27.87,211.511c0,0-7.476-13.01,7.474-13.01h23.575    c7.475,0,9.488,6.253,13.513,13.01l26.378,53.546c0,0,3.737,9.413,15.166,9.413c11.428,0,15.165-9.413,15.165-9.413l26.378-53.546    c4.026-6.829,6.038-13.01,13.513-13.01h23.575c14.95,0,7.475,13.01,7.475,13.01l-40.106,80.139c0,0-8.769,21.849-33.35,21.849    H101.397z M385.303,313.499c-24.51,0-33.351-21.849-33.351-21.849l-40.177-80.139c0,0-7.476-13.01,7.475-13.01h23.574    c7.476,0,9.487,6.253,13.513,13.01l26.378,53.546c0,0,3.739,9.413,15.166,9.413c11.428,0,15.166-9.413,15.166-9.413l26.449-53.546    c4.024-6.829,6.038-13.01,13.514-13.01h23.646c14.951,0,7.476,13.01,7.476,13.01l-40.177,80.139c0,0-8.77,21.849-33.352,21.849    H385.303L385.303,313.499z M268.65,198.501c24.509,0,33.349,21.85,33.349,21.85l40.179,80.142c0,0,7.475,13.007-7.476,13.007    h-23.573c-7.478,0-9.489-6.254-13.513-13.007l-26.378-53.548c0,0-3.737-9.416-15.167-9.416c-11.429,0-15.166,9.416-15.166,9.416    l-26.378,53.548c-4.025,6.753-6.038,13.007-13.513,13.007h-23.646c-14.95,0-7.475-13.007-7.475-13.007l40.178-80.142    c0,0,8.768-21.85,33.35-21.85H268.65L268.65,198.501z"/></g></g><g id="Layer_1"/></svg>