<?xml version="1.0" ?><svg viewBox="0 0 64 64" xmlns="http://www.w3.org/2000/svg"><g id="Think_out_of_the_box"><path d="M35.0427,18.39a1.35,1.35,0,1,1,2.6992,0,6.3149,6.3149,0,0,1-4.957,6.1576V34.8139h4.8a1.7622,1.7622,0,0,0,1.7481-1.8193,4.8315,4.8315,0,0,1,1.7578-4.1826,15.1692,15.1692,0,1,0-19.583-.2276,6.7262,6.7262,0,0,1,.8046.8257,5.7517,5.7517,0,0,1,1.1895,3.6538,1.75,1.75,0,0,0,1.75,1.75h4.834V24.5472A6.3144,6.3144,0,0,1,25.13,18.39a1.35,1.35,0,1,1,2.6992,0,3.607,3.607,0,0,0,7.2139,0Z"/><path d="M55.0307,46.301l-5.1894-7.2632a1.35,1.35,0,0,0-1.0984-.5652H32.5593l6.57,9.3145,15.1258.0186A.9514.9514,0,0,0,55.0307,46.301Z"/><path d="M13.8767,39.038l-5.146,7.2034a.9516.9516,0,0,0,.7729,1.5049l15.0743.0193,6.59-9.293H14.9756A1.35,1.35,0,0,0,13.8767,39.038Z"/><path d="M25.2751,50.4667h-.0019l-12.0479.01V61.0527a1.75,1.75,0,0,0,1.75,1.75H30.51V44.07l-4.1328,5.8279A1.3523,1.3523,0,0,1,25.2751,50.4667Z"/><path d="M37.3259,49.9145l-4.1172-5.8362V62.8027H48.7429a1.75,1.75,0,0,0,1.75-1.75V50.5012l-12.0654-.0149A1.3519,1.3519,0,0,1,37.3259,49.9145Z"/></g></svg>