<?xml version="1.0" ?><svg id="Layer_1" style="enable-background:new 0 0 512 512;" version="1.1" viewBox="0 0 512 512" xml:space="preserve" xmlns="http://www.w3.org/2000/svg" xmlns:xlink="http://www.w3.org/1999/xlink"><style type="text/css">
	.st0{fill:#8EC63F;}
	.st1{fill:#FFFFFF;}
</style><g id="XMLID_1759_"><circle class="st0" cx="256" cy="256" id="XMLID_1745_" r="256"/><g id="XMLID_1535_"><g id="XMLID_1549_"><g id="XMLID_1551_"><path class="st1" d="M158.8,374.6l-2.6-2.1c-35.2-28.7-55.4-71.2-55.4-116.5c0-79.7,62.3-145.6,141.8-150      l3.3-0.2v22L243,128c-67.4,4.2-120.1,60.4-120.1,128c0,38.4,17,74.5,46.7,99l2.3,1.9L158.8,374.6z M239.7,112.5      c-74.6,5.9-132.5,68.3-132.5,143.5c0,42.4,18.4,82.1,50.6,109.6l5.6-7.6c-29.7-25.6-46.7-62.6-46.7-101.9      c0-34.4,13-67.2,36.6-92.3c22.8-24.2,53.4-39,86.4-41.8V112.5z" id="XMLID_1712_"/></g><g id="XMLID_1550_"><path class="st1" d="M251.1,416c-32.9,0-64.6-10-91.5-28.8l-2.6-1.8l24.5-33.4l2.5,1.7      c19.8,13.7,43,20.9,67.1,20.9c65.4,0,118.6-53.2,118.6-118.6c0-63.9-52-117.1-115.9-118.5l-3.1-0.1V96l3.2,0.1      c42.1,0.7,81.6,17.7,111.2,47.8c29.7,30.1,46,70,46,112.1C411.1,344.2,339.4,416,251.1,416z M165.9,383.8      c25.3,16.9,54.7,25.9,85.3,25.9c84.8,0,153.7-69,153.7-153.7c0-82.2-66-150.5-147.8-153.6v28.9c31.5,1.5,61,14.7,83.3,37.4      c23,23.5,35.7,54.5,35.7,87.3c0,68.8-56,124.8-124.8,124.8c-24.3,0-47.8-7-68.1-20.3L165.9,383.8z" id="XMLID_1709_"/></g></g><g id="XMLID_1536_"><path class="st1" d="M202.8,226.2c2.4,0,4.6,0.2,6.8,0.7c2.2,0.5,4.2,1.1,5.9,1.8l-2,7.8     c-1.7-0.7-3.4-1.2-5-1.6c-1.6-0.4-3.6-0.6-5.8-0.6c-3.7,0-6.7,1.5-8.9,4.5c-2.3,3-3.4,6.9-3.4,11.8v3.2c1.6-1.6,3.6-2.9,5.9-3.8     c2.3-0.9,4.8-1.4,7.5-1.4c5.2,0,9.3,1.8,12.3,5.4c3,3.6,4.5,8.3,4.5,14.1c0,6.1-1.8,11.1-5.4,14.9s-8.3,5.7-14.2,5.7     c-6,0-10.9-2.2-14.8-6.5c-3.9-4.3-5.8-10.2-5.8-17.7v-13.2c0-7.5,2.1-13.5,6.4-18.1C191,228.5,196.4,226.2,202.8,226.2z      M200.5,256.5c-2.4,0-4.5,0.4-6.2,1.3c-1.7,0.9-3,2.1-3.9,3.6v3.6c0,4.8,1,8.6,3,11.4c2,2.8,4.5,4.1,7.5,4.1c3,0,5.3-1.2,7-3.5     c1.7-2.3,2.5-5.3,2.5-9c0-3.6-0.9-6.4-2.6-8.5C206.1,257.5,203.6,256.5,200.5,256.5z" id="XMLID_1546_"/><path class="st1" d="M268.2,266c0,7-1.8,12.5-5.4,16.6c-3.6,4-8.4,6-14.4,6c-6,0-10.9-2-14.5-6.1     c-3.6-4-5.5-9.6-5.5-16.5v-17.2c0-7,1.8-12.5,5.4-16.6c3.6-4.1,8.4-6.1,14.5-6.1c6,0,10.9,2,14.5,6.1c3.6,4.1,5.4,9.6,5.4,16.6     V266z M258,247.3c0-4.1-0.9-7.2-2.6-9.5c-1.7-2.3-4.1-3.4-7.2-3.4c-3.1,0-5.5,1.1-7.2,3.4c-1.7,2.3-2.5,5.5-2.5,9.5v20.2     c0,4.1,0.9,7.3,2.6,9.6c1.7,2.3,4.1,3.4,7.3,3.4c3.1,0,5.5-1.1,7.2-3.4c1.7-2.3,2.5-5.5,2.5-9.6V247.3z" id="XMLID_1543_"/><path class="st1" d="M276.7,238.7c0-3.6,1.1-6.5,3.4-8.9c2.3-2.4,5.4-3.6,9.4-3.6c4,0,7.2,1.2,9.4,3.6     c2.3,2.4,3.4,5.4,3.4,9v3.2c0,3.6-1.1,6.5-3.4,8.9c-2.3,2.4-5.4,3.6-9.4,3.6c-4,0-7.2-1.2-9.5-3.6c-2.3-2.4-3.5-5.3-3.5-8.9     V238.7z M283.8,241.9c0,1.8,0.5,3.3,1.5,4.5c1,1.2,2.5,1.9,4.4,1.9c1.8,0,3.2-0.6,4.2-1.8c1-1.2,1.5-2.7,1.5-4.5v-3.2     c0-1.8-0.5-3.3-1.5-4.6c-1-1.3-2.4-1.9-4.3-1.9c-1.9,0-3.3,0.6-4.3,1.9c-1,1.3-1.5,2.8-1.5,4.6V241.9z M291.7,283.2l-5.2-3     l29.6-47.5l5.2,3L291.7,283.2z M305.9,272.9c0-3.5,1.2-6.5,3.5-8.9c2.3-2.4,5.4-3.6,9.4-3.6c4,0,7.2,1.2,9.4,3.6     c2.3,2.4,3.4,5.4,3.4,8.9v3.3c0,3.6-1.1,6.6-3.4,8.9c-2.3,2.4-5.4,3.6-9.4,3.6c-4,0-7.2-1.2-9.5-3.6c-2.3-2.4-3.5-5.4-3.5-8.9     V272.9z M313,276.1c0,1.8,0.5,3.3,1.6,4.5s2.5,1.9,4.3,1.9c1.9,0,3.4-0.6,4.3-1.8c0.9-1.2,1.4-2.7,1.4-4.6v-3.3     c0-1.8-0.5-3.3-1.5-4.5c-1-1.3-2.5-1.9-4.3-1.9c-1.9,0-3.3,0.6-4.3,1.9c-1,1.3-1.5,2.8-1.5,4.5V276.1z" id="XMLID_1537_"/></g></g></g></svg>