<?xml version="1.0" ?><svg id="Layer_1" style="enable-background:new 0 0 512 512;" version="1.1" viewBox="0 0 512 512" xml:space="preserve" xmlns="http://www.w3.org/2000/svg" xmlns:xlink="http://www.w3.org/1999/xlink"><style type="text/css">
	.st0{fill:#119DDA;}
	.st1{fill:#FFFFFF;}
</style><g id="XMLID_1760_"><circle class="st0" cx="256" cy="256" id="XMLID_1746_" r="256"/><g id="XMLID_1520_"><g id="XMLID_1532_"><g id="XMLID_1534_"><path class="st1" d="M127.8,250.8h-22l0.2-3.3c2.1-36.9,17.6-71.6,43.8-97.8c26.2-26.2,60.9-41.7,97.7-43.8      l3.3-0.2v22l-2.9,0.2C183.5,132,132,183.6,128,247.9L127.8,250.8z M112.5,244.6h9.5c5.5-65.1,57.5-117.1,122.6-122.6v-9.5      C174,118,118,174,112.5,244.6z" id="XMLID_1706_"/></g><g id="XMLID_1533_"><path class="st1" d="M256,416c-42.2,0-82-16.3-112.1-46c-30.1-29.6-47.1-69.1-47.8-111.2l-0.1-3.2h41.4      l0.1,3.1c1.5,63.9,54.6,115.8,118.5,115.8c65.4,0,118.6-53.2,118.6-118.6c0-63.9-52-117.1-115.9-118.5l-3.1-0.1V96l3.2,0.1      c42.1,0.7,81.6,17.7,111.2,47.8c29.7,30.1,46,70,46,112.1C416,344.2,344.2,416,256,416z M102.4,261.9      c3.1,81.8,71.4,147.8,153.6,147.8c84.8,0,153.7-69,153.7-153.7c0-82.2-66-150.5-147.8-153.6v28.9c31.5,1.5,61,14.7,83.3,37.4      c23,23.5,35.7,54.5,35.7,87.3c0,68.8-56,124.8-124.8,124.8c-32.8,0-63.8-12.7-87.3-35.7c-22.7-22.2-35.9-51.7-37.4-83.2H102.4z" id="XMLID_1703_"/></g></g><g id="XMLID_1521_"><path class="st1" d="M221.1,235.2c-7.3,8.6-12.3,16.2-14.8,22.9c-2.6,6.6-3.9,14.2-3.9,22.6v7.1h-10.1v-7.1     c0-8.8,1.6-16.7,4.9-23.8c3.2-7.1,7.9-14.3,14.1-21.7h-31.6v-8.1h41.4V235.2z" id="XMLID_1530_"/><path class="st1" d="M231.3,260.9l3.5-33.9h32v8.8h-23.6l-1.8,15.5c1.2-0.9,2.6-1.6,4.3-2.2     c1.7-0.6,3.5-0.9,5.5-0.9c5.6-0.1,10,1.7,13.2,5.3c3.1,3.6,4.7,8.5,4.7,14.9c0,6-1.7,10.9-5,14.6c-3.3,3.8-8.3,5.6-14.8,5.6     c-5.3,0-9.8-1.4-13.5-4.3c-3.7-2.9-5.5-7-5.3-12.3l0.1-0.2l9.5-0.3c0,2.8,0.9,5.1,2.6,6.7c1.7,1.6,3.9,2.4,6.7,2.4     c3.2,0,5.6-1.1,7.2-3.2c1.6-2.1,2.5-5.1,2.5-8.9c0-3.6-0.8-6.6-2.5-8.8c-1.7-2.2-4.1-3.3-7.3-3.3c-2.8,0-4.8,0.4-6.2,1.3     s-2.3,2.2-2.9,3.9L231.3,260.9z" id="XMLID_1528_"/><path class="st1" d="M277.4,238.7c0-3.6,1.1-6.5,3.4-8.9c2.3-2.4,5.4-3.6,9.4-3.6c4,0,7.2,1.2,9.4,3.6     c2.3,2.4,3.4,5.4,3.4,9v3.2c0,3.6-1.1,6.5-3.4,8.9c-2.3,2.4-5.4,3.6-9.4,3.6c-4,0-7.2-1.2-9.5-3.6c-2.3-2.4-3.5-5.3-3.5-8.9     V238.7z M284.5,241.9c0,1.8,0.5,3.3,1.5,4.5c1,1.2,2.5,1.9,4.4,1.9c1.8,0,3.2-0.6,4.2-1.8c1-1.2,1.5-2.7,1.5-4.5v-3.2     c0-1.8-0.5-3.3-1.5-4.6c-1-1.3-2.4-1.9-4.3-1.9c-1.9,0-3.3,0.6-4.3,1.9c-1,1.3-1.5,2.8-1.5,4.6V241.9z M292.4,283.2l-5.2-3     l29.6-47.5l5.2,3L292.4,283.2z M306.6,272.9c0-3.5,1.2-6.5,3.5-8.9c2.3-2.4,5.4-3.6,9.4-3.6c4,0,7.2,1.2,9.4,3.6     c2.3,2.4,3.4,5.4,3.4,8.9v3.3c0,3.6-1.1,6.6-3.4,8.9c-2.3,2.4-5.4,3.6-9.4,3.6c-4,0-7.2-1.2-9.5-3.6c-2.3-2.4-3.5-5.4-3.5-8.9     V272.9z M313.7,276.1c0,1.8,0.5,3.3,1.6,4.5s2.5,1.9,4.3,1.9c1.9,0,3.4-0.6,4.3-1.8c0.9-1.2,1.4-2.7,1.4-4.6v-3.3     c0-1.8-0.5-3.3-1.5-4.5c-1-1.3-2.5-1.9-4.3-1.9c-1.9,0-3.3,0.6-4.3,1.9c-1,1.3-1.5,2.8-1.5,4.5V276.1z" id="XMLID_1522_"/></g></g></g></svg>