<?xml version="1.0" ?><svg id="Layer_1" style="enable-background:new 0 0 512 512;" version="1.1" viewBox="0 0 512 512" xml:space="preserve" xmlns="http://www.w3.org/2000/svg" xmlns:xlink="http://www.w3.org/1999/xlink"><style type="text/css">
	.st0{fill:#119DDA;}
	.st1{fill:#FFFFFF;}
</style><g id="XMLID_1761_"><circle class="st0" cx="256" cy="256" id="XMLID_1747_" r="256"/><g id="XMLID_1419_"><g id="XMLID_1432_"><path class="st1" d="M137.1,260.6H99.4c-1,0-1.9-0.4-2.6-1.1c-0.7-0.7-1-1.6-1-2.6l0.5-9.9     c4.5-81.4,69.3-146.2,150.7-150.7l0.1,0l9.9-0.2c0.9,0,1.8,0.3,2.4,1c0.6,0.6,1,1.5,1,2.4l0.1,37.6l-12.1,0.8     c-59.4,3.7-107.1,51.4-110.8,110.8L137.1,260.6z M102.3,254.3h28.9l0.4-6.2c3.9-62.6,54.1-112.8,116.6-116.7l6.2-0.4l-0.1-28.7     l-6.9,0.2c-78.2,4.4-140.4,66.6-144.7,144.8L102.3,254.3z M128,250.8h-22l0.2-3.3c2.1-36.9,17.6-71.6,43.8-97.8     c26.2-26.2,60.9-41.7,97.8-43.8l3.3-0.2v22L248,128c-64.3,4-115.8,55.6-119.9,119.9L128,250.8z M112.6,244.6h9.5     c5.5-65.1,57.5-117.1,122.6-122.6v-9.5C174.1,118,118.1,174,112.6,244.6z" id="XMLID_1672_"/></g><g id="XMLID_1431_"><path class="st1" d="M256.1,416c-42.1,0-81.8-16.2-111.9-45.8c-30.2-29.6-47.3-69.2-48-111.4l-0.1-3.2h37.8     c2,0,3.6,1.6,3.7,3.6c1.7,63.8,54.8,115.3,118.5,115.3c0.4,0,0.7,0,1.1,0c64.2-0.6,116.9-53.3,117.4-117.4     c0.6-64.4-51.3-118-115.6-119.6c-1.9,0-3.4-1.6-3.4-3.4V99.3c0-0.9,0.4-1.7,1-2.3c0.6-0.6,1.5-1,2.4-0.9     c42.2,0.8,81.7,17.8,111.3,48.1c29.7,30.3,45.9,70.2,45.7,112.5c-0.3,87.6-71.8,159.1-159.4,159.4C256.6,416,256.3,416,256.1,416     z M102.6,261.9c3.2,82.1,71.6,148.1,154.2,147.8c84.1-0.3,152.8-69,153.1-153.2c0.3-82.5-65.7-151-147.8-154.2v28.9     c31.8,1.5,61.4,14.9,83.7,37.9c23,23.7,35.5,55,35.2,88c-0.3,32.8-13.3,63.7-36.6,87c-23.3,23.3-54.2,36.3-87,36.6     c-0.4,0-0.8,0-1.2,0c-32.5,0-63.3-12.4-86.7-35.1c-23.1-22.3-36.5-52-38-83.8H102.6z" id="XMLID_1417_"/></g><g id="XMLID_1420_"><path class="st1" d="M221.3,235.2c-7.3,8.6-12.3,16.2-14.8,22.9c-2.6,6.6-3.9,14.2-3.9,22.6v7.1h-10.1v-7.1     c0-8.8,1.6-16.7,4.9-23.8c3.2-7.1,7.9-14.3,14.1-21.7h-31.6V227h41.4V235.2z" id="XMLID_1429_"/><path class="st1" d="M231.4,260.9l3.5-33.9h32v8.8h-23.6l-1.8,15.5c1.2-0.9,2.6-1.6,4.3-2.2     c1.7-0.6,3.5-0.9,5.5-0.9c5.6-0.1,10,1.7,13.2,5.3c3.1,3.6,4.7,8.5,4.7,14.9c0,6-1.7,10.9-5,14.6c-3.3,3.8-8.3,5.6-14.8,5.6     c-5.3,0-9.8-1.4-13.5-4.3c-3.7-2.9-5.5-7-5.3-12.3l0.1-0.2l9.5-0.3c0,2.8,0.9,5.1,2.6,6.7c1.7,1.6,3.9,2.4,6.7,2.4     c3.2,0,5.6-1.1,7.2-3.2c1.6-2.1,2.5-5.1,2.5-8.9c0-3.6-0.8-6.6-2.5-8.8c-1.7-2.2-4.1-3.3-7.3-3.3c-2.8,0-4.8,0.4-6.2,1.3     c-1.3,0.9-2.3,2.2-2.9,3.9L231.4,260.9z" id="XMLID_1427_"/><path class="st1" d="M277.6,238.7c0-3.6,1.1-6.5,3.4-8.9c2.3-2.4,5.4-3.6,9.4-3.6c4,0,7.2,1.2,9.4,3.6     c2.3,2.4,3.4,5.4,3.4,9v3.2c0,3.6-1.1,6.5-3.4,8.9s-5.4,3.6-9.4,3.6c-4,0-7.2-1.2-9.5-3.6c-2.3-2.4-3.5-5.3-3.5-8.9V238.7z      M284.6,241.9c0,1.8,0.5,3.3,1.5,4.5c1,1.2,2.5,1.9,4.4,1.9c1.8,0,3.2-0.6,4.2-1.8c1-1.2,1.5-2.7,1.5-4.5v-3.2     c0-1.8-0.5-3.3-1.5-4.6c-1-1.3-2.4-1.9-4.3-1.9c-1.9,0-3.3,0.6-4.3,1.9c-1,1.3-1.5,2.8-1.5,4.6V241.9z M292.6,283.2l-5.2-3     l29.6-47.5l5.2,3L292.6,283.2z M306.7,272.9c0-3.5,1.2-6.5,3.5-8.9c2.3-2.4,5.4-3.6,9.4-3.6c4,0,7.2,1.2,9.4,3.6     c2.3,2.4,3.4,5.4,3.4,8.9v3.3c0,3.6-1.1,6.6-3.4,8.9c-2.3,2.4-5.4,3.6-9.4,3.6c-4,0-7.2-1.2-9.5-3.6c-2.3-2.4-3.5-5.4-3.5-8.9     V272.9z M313.8,276.1c0,1.8,0.5,3.3,1.6,4.5c1,1.3,2.5,1.9,4.3,1.9c1.9,0,3.4-0.6,4.3-1.8c0.9-1.2,1.4-2.7,1.4-4.6v-3.3     c0-1.8-0.5-3.3-1.5-4.5c-1-1.3-2.5-1.9-4.3-1.9c-1.9,0-3.3,0.6-4.3,1.9c-1,1.3-1.5,2.8-1.5,4.5V276.1z" id="XMLID_1421_"/></g></g></g></svg>