<?xml version="1.0" ?><svg id="Layer_1" style="enable-background:new 0 0 512 512;" version="1.1" viewBox="0 0 512 512" xml:space="preserve" xmlns="http://www.w3.org/2000/svg" xmlns:xlink="http://www.w3.org/1999/xlink"><style type="text/css">
	.st0{fill:#5BB59B;}
	.st1{fill:#FFFFFF;}
</style><g id="XMLID_1742_"><circle class="st0" cx="256" cy="256" id="XMLID_1302_" r="256"/><g id="XMLID_1584_"><g id="XMLID_1596_"><g id="XMLID_1598_"><path class="st1" d="M257,423c-41.4,0-80.3-16.1-109.6-45.4C118.1,348.3,102,309.4,102,268      c0-82.2,64.2-150.1,146.2-154.7l3.3-0.2v22.5l-2.9,0.2C179,140.2,124.5,198.3,124.5,268c0,73,59.4,132.5,132.5,132.5      c73,0,132.5-59.4,132.5-132.5c0-25.2-7.1-49.7-20.6-70.9l-1.6-2.5l18.2-13.2l1.8,2.8c16.1,25,24.6,54,24.6,83.9      c0,41.4-16.1,80.3-45.4,109.6C337.3,406.9,298.4,423,257,423z M245.3,119.8c-77.1,6-137,70.5-137,148.2      c0,82,66.7,148.7,148.7,148.7c82,0,148.7-66.7,148.7-148.7c0-27.5-7.5-54.3-21.9-77.6l-8.1,5.9c13.1,21.6,20,46.4,20,71.8      c0,37.1-14.4,71.9-40.6,98.1c-26.2,26.2-61,40.6-98.1,40.6s-71.9-14.4-98.1-40.6c-26.2-26.2-40.6-61-40.6-98.1      c0-35.5,13.4-69.3,37.8-95.1c23.6-25,55.2-40.2,89.2-43.1V119.8z" id="XMLID_1730_"/></g><g id="XMLID_1597_"><path class="st1" d="M356.2,196.3l-1.9-2.4c-22.8-29.8-57.2-47.4-94.6-48.2l-3.1-0.1V103l3.2,0.1      c25.7,0.4,50.3,6.7,73,18.5c21.7,11.3,41,27.6,55.8,47.2l1.9,2.5L356.2,196.3z M263,139.4c37,1.7,71.2,19.1,94.5,48.2l24.3-17.7      c-29.1-36.9-72-58.8-118.8-60.6V139.4z" id="XMLID_1727_"/></g></g><g id="XMLID_1585_"><path class="st1" d="M210.3,290.9H201v-47.1h-11.8v-7.4l21.1-2V290.9z" id="XMLID_1594_"/><path class="st1" d="M232.1,266.2l3.2-31.1h29.4v8h-21.6l-1.7,14.2c1.1-0.8,2.4-1.5,3.9-2     c1.5-0.5,3.2-0.8,5-0.8c5.2-0.1,9.2,1.6,12.1,4.9c2.9,3.3,4.3,7.8,4.3,13.7c0,5.5-1.5,10-4.6,13.4c-3,3.4-7.6,5.2-13.6,5.2     c-4.9,0-9-1.3-12.4-4c-3.4-2.6-5-6.4-4.9-11.3l0.1-0.2l8.7-0.3c0,2.6,0.8,4.6,2.4,6.1c1.6,1.5,3.6,2.2,6.1,2.2     c2.9,0,5.1-1,6.6-2.9c1.5-2,2.3-4.7,2.3-8.1c0-3.3-0.8-6-2.3-8.1c-1.6-2-3.8-3-6.7-3c-2.6,0-4.4,0.4-5.7,1.2     c-1.2,0.8-2.1,2-2.7,3.6L232.1,266.2z" id="XMLID_1592_"/><path class="st1" d="M274.4,245.9c0-3.3,1.1-6,3.2-8.2c2.1-2.2,5-3.3,8.6-3.3c3.7,0,6.6,1.1,8.7,3.3     c2.1,2.2,3.2,4.9,3.2,8.2v2.9c0,3.3-1.1,6-3.2,8.2c-2.1,2.2-5,3.3-8.6,3.3c-3.7,0-6.6-1.1-8.7-3.3c-2.1-2.2-3.2-4.9-3.2-8.2     V245.9z M280.9,248.8c0,1.6,0.5,3,1.4,4.2c0.9,1.1,2.3,1.7,4,1.7c1.7,0,3-0.6,3.9-1.7c0.9-1.1,1.4-2.5,1.4-4.2v-2.9     c0-1.7-0.5-3.1-1.4-4.2c-0.9-1.1-2.2-1.7-3.9-1.7c-1.7,0-3,0.6-3.9,1.7c-0.9,1.1-1.4,2.6-1.4,4.2V248.8z M288.2,286.7l-4.8-2.8     l27.2-43.5l4.8,2.8L288.2,286.7z M301.2,277.2c0-3.2,1.1-6,3.2-8.2c2.1-2.2,5-3.3,8.6-3.3c3.7,0,6.6,1.1,8.7,3.3     c2.1,2.2,3.2,4.9,3.2,8.2v3c0,3.3-1.1,6-3.2,8.2c-2.1,2.2-5,3.3-8.6,3.3c-3.7,0-6.6-1.1-8.7-3.3c-2.1-2.2-3.2-4.9-3.2-8.2V277.2z      M307.7,280.2c0,1.6,0.5,3,1.4,4.2s2.3,1.7,4,1.7c1.8,0,3.1-0.6,4-1.7c0.9-1.1,1.3-2.5,1.3-4.2v-3c0-1.6-0.5-3-1.4-4.2     c-0.9-1.1-2.3-1.7-4-1.7c-1.7,0-3,0.6-3.9,1.7c-0.9,1.1-1.4,2.5-1.4,4.2V280.2z" id="XMLID_1586_"/></g></g></g></svg>