<?xml version="1.0" ?><svg id="Layer_1" style="enable-background:new 0 0 512 512;" version="1.1" viewBox="0 0 512 512" xml:space="preserve" xmlns="http://www.w3.org/2000/svg" xmlns:xlink="http://www.w3.org/1999/xlink"><style type="text/css">
	.st0{fill:#F77B55;}
	.st1{fill:#FFFFFF;}
</style><g id="XMLID_1758_"><circle class="st0" cx="256" cy="256" id="XMLID_1744_" r="256"/><g id="XMLID_1552_"><g id="XMLID_1565_"><g id="XMLID_1567_"><path class="st1" d="M251,414c-41.1,0-79.8-16-108.9-45.1C113,339.8,97,301.1,97,260      c0-81.7,63.8-149.2,145.3-153.7l3.3-0.2v22.4l-2.9,0.2c-69.1,4.3-123.2,62-123.2,131.3c0,72.6,59,131.6,131.6,131.6      c11.1,0,22.2-1.4,32.9-4.1l2.9-0.7l6.8,21.3l-3.2,0.8C277.6,412.3,264.3,414,251,414z M239.3,112.7      c-76.6,6-136.1,70-136.1,147.3c0,81.5,66.3,147.7,147.7,147.7c11.7,0,23.3-1.4,34.6-4.1l-3-9.4c-10.3,2.4-20.9,3.6-31.6,3.6      c-36.8,0-71.4-14.3-97.5-40.4c-26-26-40.4-60.7-40.4-97.5c0-35.3,13.3-68.9,37.5-94.5c23.4-24.8,54.8-40,88.6-42.8V112.7z" id="XMLID_1718_"/></g><g id="XMLID_1566_"><path class="st1" d="M301.5,416l-12.9-40.3l2.9-1c48.6-17.2,81.2-63.3,81.2-114.7      c0-65.6-53.3-120.1-118.9-121.6l-3.1-0.1V96l3.2,0.1c43.1,0.7,83.6,18.1,113.9,49C398.2,175.9,415,216.8,415,260      c0,69.8-44.4,132.1-110.4,155L301.5,416z M296.4,379.5l9.1,28.4c61.9-22.8,103.2-81.9,103.2-148c0-84.4-67.8-154.4-151.7-157.6      v29.8c32.4,1.5,62.6,15,85.4,38.3c23.6,24.1,36.6,55.8,36.6,89.4C378.9,313.1,345.9,360.7,296.4,379.5z" id="XMLID_1715_"/></g></g><g id="XMLID_1553_"><path class="st1" d="M214,261.5h7.9v8.4H214v13.8h-10.3v-13.8h-26l-0.3-6.4l26-42.1H214V261.5z M187.5,261.5     h16.2v-25.4l-0.3,0l-1,2.4L187.5,261.5z" id="XMLID_1562_"/><path class="st1" d="M231.1,256.2l3.6-34.7h32.8v9h-24.2l-1.9,15.9c1.2-0.9,2.7-1.6,4.4-2.2     c1.7-0.6,3.6-0.9,5.6-0.9c5.8-0.1,10.3,1.8,13.5,5.4c3.2,3.7,4.8,8.8,4.8,15.3c0,6.2-1.7,11.2-5.1,15c-3.4,3.8-8.5,5.8-15.2,5.8     c-5.5,0-10.1-1.5-13.9-4.4c-3.8-3-5.6-7.2-5.5-12.6l0.1-0.2l9.7-0.3c0,2.9,0.9,5.2,2.6,6.8c1.8,1.6,4,2.5,6.9,2.5     c3.2,0,5.7-1.1,7.4-3.3c1.7-2.2,2.5-5.2,2.5-9.1c0-3.7-0.9-6.7-2.6-9c-1.7-2.3-4.2-3.4-7.4-3.4c-2.9,0-5,0.5-6.3,1.4     c-1.4,0.9-2.4,2.3-3,4L231.1,256.2z" id="XMLID_1560_"/><path class="st1" d="M278.4,233.5c0-3.6,1.2-6.7,3.5-9.2c2.4-2.5,5.6-3.7,9.6-3.7c4.1,0,7.3,1.2,9.7,3.7     c2.4,2.5,3.5,5.5,3.5,9.2v3.3c0,3.6-1.2,6.7-3.5,9.1c-2.4,2.4-5.6,3.7-9.6,3.7c-4.1,0-7.3-1.2-9.7-3.7c-2.4-2.4-3.5-5.5-3.5-9.1     V233.5z M285.6,236.7c0,1.8,0.5,3.4,1.6,4.6c1,1.3,2.5,1.9,4.5,1.9c1.9,0,3.3-0.6,4.3-1.9c1-1.3,1.5-2.8,1.5-4.7v-3.3     c0-1.9-0.5-3.4-1.6-4.7c-1-1.3-2.5-1.9-4.4-1.9c-1.9,0-3.4,0.6-4.4,1.9c-1,1.3-1.5,2.9-1.5,4.7V236.7z M293.8,279.1l-5.3-3.1     l30.4-48.7l5.3,3.1L293.8,279.1z M308.3,268.5c0-3.6,1.2-6.7,3.5-9.1c2.4-2.5,5.6-3.7,9.6-3.7c4.1,0,7.3,1.2,9.7,3.7     c2.4,2.5,3.5,5.5,3.5,9.1v3.3c0,3.7-1.2,6.7-3.5,9.2c-2.4,2.4-5.6,3.7-9.6,3.7c-4.1,0-7.3-1.2-9.7-3.7c-2.4-2.5-3.5-5.5-3.5-9.1     V268.5z M315.5,271.8c0,1.8,0.5,3.4,1.6,4.7c1.1,1.3,2.5,1.9,4.4,1.9c2,0,3.5-0.6,4.4-1.9c1-1.2,1.5-2.8,1.5-4.7v-3.3     c0-1.8-0.5-3.4-1.6-4.7c-1-1.3-2.5-1.9-4.4-1.9c-1.9,0-3.4,0.6-4.4,1.9c-1,1.3-1.5,2.8-1.5,4.7V271.8z" id="XMLID_1554_"/></g></g></g></svg>