<?xml version="1.0" ?><svg data-name="Layer 1" id="Layer_1" viewBox="0 0 512 512" xmlns="http://www.w3.org/2000/svg"><path d="M271.59,381.09v40.27a20.47,20.47,0,0,0,5.58-1.92,20.9,20.9,0,0,0,6.23-4.79,16.08,16.08,0,0,0,2.72-5,13.87,13.87,0,0,0,.91-4.05v-.12c.18-8.1-1.36-13.94-4.75-17.87C279.86,384.81,276.33,382.67,271.59,381.09Z"/><path d="M385,256.47V200.66L417.29,233a11,11,0,1,0,15.57-15.57L381.74,166.3a11.33,11.33,0,0,0-15.57,0l-51.12,51.12A11,11,0,0,0,330.62,233L363,200.66v55.81a86.07,86.07,0,0,0-34,11.91,125.69,125.69,0,0,1,39.62,160c1.79.11,3.58.27,5.41.27a86.43,86.43,0,0,0,11-172.17Z"/><path d="M230.48,340.24a28.63,28.63,0,0,0,1.46,6.53,14.68,14.68,0,0,0,3.68,5.29,33.83,33.83,0,0,0,8.43,5.71,35.21,35.21,0,0,0,8.19,2.7V315.89c-6.6,1.08-11.76,3.54-15.4,7.34A22,22,0,0,0,230.48,340.24Z"/><path d="M183.08,268.38a86.11,86.11,0,0,0-34-11.91V200.66L181.38,233A11,11,0,0,0,197,217.42L145.83,166.3a11.33,11.33,0,0,0-15.57,0L79.14,217.42A11,11,0,0,0,94.71,233L127,200.66v55.81a86.43,86.43,0,0,0,11,172.17c1.83,0,3.62-.16,5.41-.27a125.68,125.68,0,0,1,39.63-160Z"/><path d="M267,267.63V74l54.81,54.83a11,11,0,1,0,15.57-15.57L263.79,39.61a11,11,0,0,0-15.57,0L174.6,113.23a11,11,0,1,0,15.57,15.57L245,74V267.63a104.28,104.28,0,1,0,22,0Zm37.11,138.45c-.53,7.63-3.81,14.87-9.75,21.4-5.17,5.72-12.83,9.38-22.79,10.9v5.11a9.1,9.1,0,0,1-3.6,7.56,10.37,10.37,0,0,1-6.25,2.16,9.91,9.91,0,0,1-6.25-2.27,9.3,9.3,0,0,1-3.22-7.45v-4.84c-10.35-1-19.46-3.95-27.11-8.77-9.35-6-15.12-14.69-17.23-25.93a7.52,7.52,0,0,1,8.37-9.44c4.7.11,8.21,3.07,8.73,7.52,1.25,5.05,4.41,9.7,9.56,13.59,4.22,3.18,10.15,5.23,17.68,6.12l0-44c-10.17-1.18-19.37-4.84-26.38-10.7a38.9,38.9,0,0,1-13.32-25.8,36.14,36.14,0,0,1,2.3-16.62A38.3,38.3,0,0,1,224,311.17a42.15,42.15,0,0,1,14.72-9,58.67,58.67,0,0,1,13.54-3.2v-5.47a9.46,9.46,0,0,1,2.91-7.11,9.75,9.75,0,0,1,13-.36,9.6,9.6,0,0,1,3.47,7.47V300a40.71,40.71,0,0,1,20.53,10.87c6.79,6.69,10.39,15.71,10.68,26.76-1.11,5.84-4.12,8.85-8.16,9.36s-8.43-1.79-9.1-7.7a36.42,36.42,0,0,0-1.62-7.79,20.12,20.12,0,0,0-3.66-6.59,30.18,30.18,0,0,0-6.49-5.88,17.27,17.27,0,0,0-2.18-1.24V363.4a48.36,48.36,0,0,1,15.17,6.05,37.83,37.83,0,0,1,11.45,10.75,35.32,35.32,0,0,1,5.23,13.25A44.66,44.66,0,0,1,304.13,406.08Z"/></svg>