<?xml version="1.0" ?><svg height="48px" version="1.1" viewBox="0 0 48 48" width="48px" xmlns="http://www.w3.org/2000/svg" xmlns:xlink="http://www.w3.org/1999/xlink"><title/><desc/><g fill="none" fill-rule="evenodd" id="Page-1" stroke="none" stroke-width="1"><g id="Artboard-Copy" transform="translate(-407.000000, -309.000000)"><path d="M416.373,317.9995 C414.51,317.9995 413,319.5115 413,321.3745 L413,344.6245 C413,346.4885 414.51,348.0015 416.373,348.0015 L445.627,348.0015 C447.49,348.0015 449,346.4885 449,344.6245 L449,321.3745 C449,319.5115 447.49,317.9995 445.627,317.9995 L443,317.9995 L443,320.6255 C443,322.4885 441.488,324.0005 439.625,324.0005 L438.375,324.0005 C436.512,324.0005 435,322.4885 435,320.6255 L434.984,317.9995 L427,317.9995 L427,320.6255 C427,322.4885 425.488,324.0005 423.625,324.0005 L422.375,324.0005 C420.512,324.0005 419,322.4885 419,320.6255 L419,317.9995 L416.373,317.9995 Z M416,332.0015 L422,332.0015 L422,328.9995 L416,328.9995 L416,332.0015 Z M416,336.9995 L422,336.9995 L422,333.9995 L416,333.9995 L416,336.9995 Z M416,341.9995 L422,341.9995 L422,338.9995 L416,338.9995 L416,341.9995 Z M424,332.0015 L430,332.0015 L430,328.9995 L424,328.9995 L424,332.0015 Z M424,336.9995 L430,336.9995 L430,333.9995 L424,333.9995 L424,336.9995 Z M424,341.9995 L430,341.9995 L430,338.9995 L424,338.9995 L424,341.9995 Z M440,332.0015 L446,332.0015 L446,328.9995 L440,328.9995 L440,332.0015 Z M440,336.9995 L446,336.9995 L446,333.9995 L440,333.9995 L440,336.9995 Z M440,341.9995 L446,341.9995 L446,338.9995 L440,338.9995 L440,341.9995 Z M432,332.0015 L438,332.0015 L438,328.9995 L432,328.9995 L432,332.0015 Z M432,336.9995 L438,336.9995 L438,333.9995 L432,333.9995 L432,336.9995 Z M432,341.9995 L438,341.9995 L438,338.9995 L432,338.9995 L432,341.9995 Z M422.127,313.9995 C421.504,313.9995 421,314.5045 421,315.1245 L421,320.8745 C421,321.4975 421.504,321.9995 422.127,321.9995 L423.875,321.9995 C424.496,321.9995 425,321.4975 425,320.8745 L425,315.1245 C425,314.5045 424.496,313.9995 423.875,313.9995 L422.127,313.9995 Z M438.123,313.9995 C437.504,313.9995 436.998,314.5045 436.998,315.1245 L436.998,320.8745 C436.998,321.4975 437.504,321.9995 438.123,321.9995 L439.873,321.9995 C440.496,321.9995 440.998,321.4975 440.998,320.8745 L440.998,315.1245 C440.998,314.5045 440.496,313.9995 439.873,313.9995 L438.123,313.9995 Z" fill="#000000" id="calendar"/><g id="slices" transform="translate(47.000000, 9.000000)"/></g></g></svg>